<svg xmlns="http://www.w3.org/2000/svg" viewBox="0 0 512 512" role="img" aria-labelledby="title"><title id="title">Game Scam Guard app icon</title><defs><linearGradient id="bg" x1="0" y1="0" x2="1" y2="1"><stop stop-color="#251407"/><stop offset="1" stop-color="#0b0b14"/></linearGradient><linearGradient id="warn" x1="0" y1="0" x2="1" y2="1"><stop stop-color="#ffd45c"/><stop offset=".52" stop-color="#ff8a24"/><stop offset="1" stop-color="#fa4d43"/></linearGradient><filter id="g"><feGaussianBlur stdDeviation="10" result="b"/><feMerge><feMergeNode in="b"/><feMergeNode in="SourceGraphic"/></feMerge></filter></defs><rect width="512" height="512" rx="112" fill="url(#bg)"/><rect x="18" y="18" width="476" height="476" rx="96" fill="none" stroke="#ff9b30" stroke-opacity=".34" stroke-width="5"/><path d="M256 88 397 143v103c0 91-61 154-141 180-80-26-141-89-141-180V143z" fill="#211207" stroke="url(#warn)" stroke-width="14" filter="url(#g)"/><path d="M160 285c12-53 37-76 74-76h44c37 0 62 23 74 76l-21 27c-11 14-32 8-35-9l-5-25h-70l-5 25c-3 17-24 23-35 9z" fill="#100d13" stroke="url(#warn)" stroke-width="14" stroke-linejoin="round"/><path d="M208 245v27m-14-13h28m83-12h1m25 25h1" stroke="#ffd45c" stroke-width="12" stroke-linecap="round"/><path d="m256 116 57 98H199z" fill="#ff9c28" stroke="#ffe6a2" stroke-width="7" stroke-linejoin="round"/><path d="M256 147v29m0 17v1" stroke="#1d130c" stroke-width="12" stroke-linecap="round"/></svg>